<svg width="17" height="16" viewBox="0 0 17 16" fill="none" xmlns="http://www.w3.org/2000/svg">
<path d="M4.49837 9.00836C6.58171 11.0917 9.91504 11.0917 11.9984 9.00836M13.0833 12.1683C13.0833 12.1683 13.1475 12.1225 13.25 12.0442C14.7858 10.8567 15.75 9.13583 15.75 7.22C15.75 3.64833 12.3917 0.75 8.25 0.75C4.10833 0.75 0.75 3.64833 0.75 7.22C0.75 10.7933 4.10833 13.5917 8.25 13.5917C8.60333 13.5917 9.18333 13.5683 9.99 13.5217C11.0417 14.205 12.5767 14.7658 13.92 14.7658C14.3358 14.7658 14.5317 14.4242 14.265 14.0758C13.86 13.5792 13.3017 12.7833 13.085 12.1675L13.0833 12.1683Z" stroke="white" stroke-width="1.5" stroke-linecap="round" stroke-linejoin="round"/>
</svg>
