<svg width="15" height="15" viewBox="0 0 15 15" fill="none" xmlns="http://www.w3.org/2000/svg">
<path d="M0.75 9.91667H14.0833M0.75 14.0833H10.75M0.75 1.58333C0.75 1.36232 0.837798 1.15036 0.994078 0.994078C1.15036 0.837798 1.36232 0.75 1.58333 0.75H4.91667C5.13768 0.75 5.34964 0.837798 5.50592 0.994078C5.6622 1.15036 5.75 1.36232 5.75 1.58333V4.91667C5.75 5.13768 5.6622 5.34964 5.50592 5.50592C5.34964 5.6622 5.13768 5.75 4.91667 5.75H1.58333C1.36232 5.75 1.15036 5.6622 0.994078 5.50592C0.837798 5.34964 0.75 5.13768 0.75 4.91667V1.58333Z" stroke="white" stroke-opacity="0.7" stroke-width="1.5" stroke-linecap="round" stroke-linejoin="round"/>
</svg>
