<svg width="18" height="18" viewBox="0 0 18 18" fill="none" xmlns="http://www.w3.org/2000/svg">
<path d="M11 6.83333H11.0067M3 12.1666L6.33333 8.8333C6.952 8.23797 7.71467 8.23797 8.33333 8.8333L11.6667 12.1666M10.3333 10.8333L11 10.1666C11.6187 9.5713 12.3813 9.5713 13 10.1666L15 12.1666M3 5.5C3 4.96957 3.21071 4.46086 3.58579 4.08579C3.96086 3.71071 4.46957 3.5 5 3.5H13C13.5304 3.5 14.0391 3.71071 14.4142 4.08579C14.7893 4.46086 15 4.96957 15 5.5V13.5C15 14.0304 14.7893 14.5391 14.4142 14.9142C14.0391 15.2893 13.5304 15.5 13 15.5H5C4.46957 15.5 3.96086 15.2893 3.58579 14.9142C3.21071 14.5391 3 14.0304 3 13.5V5.5Z" stroke="white" stroke-width="1.5" stroke-linecap="round" stroke-linejoin="round"/>
</svg>
