<svg width="16" height="16" viewBox="0 0 16 16" fill="none" xmlns="http://www.w3.org/2000/svg">
<path d="M8.39599 15.5051L8.38799 15.5065L8.34066 15.5298L8.32733 15.5325L8.31799 15.5298L8.27066 15.5058C8.26355 15.504 8.25821 15.5054 8.25466 15.5098L8.25199 15.5165L8.24066 15.8018L8.24399 15.8151L8.25066 15.8238L8.31999 15.8731L8.32999 15.8758L8.33799 15.8731L8.40733 15.8238L8.41533 15.8131L8.41799 15.8018L8.40666 15.5171C8.40488 15.51 8.40133 15.506 8.39599 15.5051ZM8.57199 15.4298L8.56266 15.4311L8.43999 15.4931L8.43333 15.4998L8.43133 15.5071L8.44333 15.7938L8.44666 15.8018L8.45199 15.8071L8.58599 15.8685C8.59444 15.8707 8.60088 15.8689 8.60533 15.8631L8.60799 15.8538L8.58533 15.4445C8.5831 15.436 8.57866 15.4311 8.57199 15.4298ZM8.09533 15.4311C8.09239 15.4293 8.08888 15.4288 8.08552 15.4295C8.08217 15.4303 8.07923 15.4323 8.07733 15.4351L8.07333 15.4445L8.05066 15.8538C8.0511 15.8618 8.05488 15.8671 8.06199 15.8698L8.07199 15.8685L8.20599 15.8065L8.21266 15.8011L8.21466 15.7938L8.22666 15.5071L8.22466 15.4991L8.21799 15.4925L8.09533 15.4311Z" fill="white" fill-opacity="0.6"/>
<path d="M6.07128 3.63192C6.46995 2.46525 8.08195 2.42992 8.55462 3.52592L8.59462 3.63259L9.13262 5.20592C9.25591 5.56674 9.45515 5.89693 9.7169 6.1742C9.97865 6.45148 10.2968 6.66939 10.6499 6.81325L10.7946 6.86725L12.3679 7.40459C13.5346 7.80325 13.5699 9.41525 12.4746 9.88792L12.3679 9.92792L10.7946 10.4659C10.4337 10.5891 10.1034 10.7883 9.82596 11.0501C9.54857 11.3118 9.33055 11.6301 9.18662 11.9833L9.13262 12.1273L8.59528 13.7013C8.19662 14.8679 6.58461 14.9033 6.11261 13.8079L6.07128 13.7013L5.53395 12.1279C5.41073 11.767 5.21153 11.4367 4.94978 11.1593C4.68802 10.8819 4.36981 10.6639 4.01661 10.5199L3.87261 10.4659L2.29928 9.92859C1.13195 9.52992 1.09661 7.91792 2.19261 7.44592L2.29928 7.40459L3.87261 6.86725C4.23344 6.74396 4.56362 6.54472 4.8409 6.28297C5.11817 6.02122 5.33609 5.70305 5.47995 5.34992L5.53395 5.20592L6.07128 3.63192ZM12.6666 1.33325C12.7913 1.33325 12.9136 1.36824 13.0194 1.43423C13.1252 1.50023 13.2104 1.59459 13.2653 1.70659L13.2973 1.78459L13.5306 2.46859L14.2153 2.70192C14.3403 2.74438 14.4498 2.823 14.5301 2.9278C14.6104 3.0326 14.6577 3.15886 14.6661 3.2906C14.6746 3.42233 14.6437 3.55361 14.5774 3.66778C14.5112 3.78195 14.4125 3.87388 14.2939 3.93192L14.2153 3.96392L13.5313 4.19725L13.2979 4.88192C13.2554 5.00687 13.1767 5.11638 13.0719 5.19658C12.9671 5.27678 12.8408 5.32405 12.709 5.3324C12.5773 5.34075 12.4461 5.30982 12.3319 5.24351C12.2178 5.17719 12.1259 5.0785 12.0679 4.95992L12.0359 4.88192L11.8026 4.19792L11.1179 3.96459C10.993 3.92212 10.8834 3.84351 10.8031 3.73871C10.7229 3.63391 10.6755 3.50764 10.6671 3.37591C10.6587 3.24417 10.6895 3.1129 10.7558 2.99873C10.8221 2.88456 10.9207 2.79263 11.0393 2.73459L11.1179 2.70259L11.8019 2.46925L12.0353 1.78459C12.0802 1.65287 12.1653 1.53852 12.2785 1.45758C12.3917 1.37664 12.5274 1.33317 12.6666 1.33325Z" fill="white" fill-opacity="0.6"/>
</svg>
