<svg width="15" height="15" viewBox="0 0 15 15" fill="none" xmlns="http://www.w3.org/2000/svg">
<path d="M9.41667 4.36111H9.42389M0.75 10.1389L4.36111 6.52774C5.03133 5.8828 5.85756 5.8828 6.52778 6.52774L10.1389 10.1389M8.69444 8.69441L9.41667 7.97219C10.0869 7.32724 10.9131 7.32724 11.5833 7.97219L13.75 10.1389M0.75 2.91667C0.75 2.34203 0.978273 1.79093 1.3846 1.3846C1.79093 0.978273 2.34203 0.75 2.91667 0.75H11.5833C12.158 0.75 12.7091 0.978273 13.1154 1.3846C13.5217 1.79093 13.75 2.34203 13.75 2.91667V11.5833C13.75 12.158 13.5217 12.7091 13.1154 13.1154C12.7091 13.5217 12.158 13.75 11.5833 13.75H2.91667C2.34203 13.75 1.79093 13.5217 1.3846 13.1154C0.978273 12.7091 0.75 12.158 0.75 11.5833V2.91667Z" stroke="white" stroke-opacity="0.6" stroke-width="1.5" stroke-linecap="round" stroke-linejoin="round"/>
</svg>
