<svg width="17" height="12" viewBox="0 0 17 12" fill="none" xmlns="http://www.w3.org/2000/svg">
<path d="M4.08333 5.75H7.41667M10.75 4.08333L14.5442 2.18666C14.6712 2.12319 14.8123 2.09323 14.9542 2.09962C15.096 2.10601 15.2339 2.14854 15.3547 2.22317C15.4755 2.2978 15.5752 2.40206 15.6444 2.52606C15.7136 2.65005 15.7499 2.78967 15.75 2.93166V8.56833C15.7499 8.71032 15.7136 8.84994 15.6444 8.97394C15.5752 9.09793 15.4755 9.20219 15.3547 9.27683C15.2339 9.35146 15.096 9.39399 14.9542 9.40038C14.8123 9.40676 14.6712 9.3768 14.5442 9.31333L10.75 7.41666V4.08333ZM0.75 2.41667C0.75 1.97464 0.925595 1.55072 1.23816 1.23816C1.55072 0.925595 1.97464 0.75 2.41667 0.75H9.08333C9.52536 0.75 9.94928 0.925595 10.2618 1.23816C10.5744 1.55072 10.75 1.97464 10.75 2.41667V9.08333C10.75 9.52536 10.5744 9.94928 10.2618 10.2618C9.94928 10.5744 9.52536 10.75 9.08333 10.75H2.41667C1.97464 10.75 1.55072 10.5744 1.23816 10.2618C0.925595 9.94928 0.75 9.52536 0.75 9.08333V2.41667Z" stroke="white" stroke-opacity="0.6" stroke-width="1.5" stroke-linecap="round" stroke-linejoin="round"/>
</svg>
